<?xml version="1.0" encoding="utf-8"?>
<svg id="Layer_1" style="enable-background:new 0 0 1000 1000;" version="1.1" viewBox="0 0 1000 1000" xmlns="http://www.w3.org/2000/svg">
  <style type="text/css">
	.st0{fill:#25D366;}
	.st1{fill-rule:evenodd;clip-rule:evenodd;fill:#FFFFFF;}
</style>
  <title/>
  <g>
    <path class="st0" d="M500,1000L500,1000C223.9,1000,0,776.1,0,500v0C0,223.9,223.9,0,500,0h0c276.1,0,500,223.9,500,500v0   C1000,776.1,776.1,1000,500,1000z"/>
    <g>
      <g id="WA_Logo">
        <g>
          <path class="st1" d="M 744.9 260.2 C 682.9 198.1 600.3 163.9 512.4 163.8 C 331.3 163.8 183.8 311.2 183.8 492.4 C 183.8 550.3 198.9 606.9 227.7 656.7 L 181.1 827 L 355.3 781.3 C 403.3 807.5 457.3 821.3 512.3 821.3 L 512.4 821.3 C 512.4 821.3 512.4 821.3 512.4 821.3 C 693.5 821.3 840.9 673.9 841 492.7 C 841.1 404.9 807 322.3 744.9 260.2 Z M 512.5 765.8 L 512.4 765.8 C 463.4 765.8 415.3 752.6 373.4 727.7 L 363.4 721.8 L 260 748.9 L 287.6 648.1 L 281.1 637.8 C 253.8 594.3 239.3 544.1 239.3 492.4 C 239.4 341.8 361.9 219.3 512.6 219.3 C 585.6 219.3 654.1 247.8 705.7 299.4 C 757.3 351 785.7 419.7 785.6 492.6 C 785.6 643.3 663 765.8 512.5 765.8 Z M 662.3 561.2 C 654.1 557.1 613.7 537.2 606.2 534.5 C 598.7 531.8 593.2 530.4 587.7 538.6 C 582.2 546.8 566.5 565.3 561.7 570.8 C 556.9 576.3 552.1 577 543.9 572.9 C 535.7 568.8 509.2 560.1 477.9 532.1 C 453.5 510.3 437 483.4 432.2 475.2 C 427.4 467 431.7 462.5 435.8 458.4 C 439.5 454.7 444 448.8 448.1 444 C 452.2 439.2 453.6 435.8 456.3 430.3 C 459 424.8 457.7 420 455.6 415.9 C 453.5 411.8 437.1 371.4 430.3 354.9 C 423.6 338.9 416.9 341.1 411.8 340.8 C 407 340.6 401.5 340.5 396.1 340.5 C 390.6 340.5 381.7 342.6 374.2 350.8 C 366.7 359 345.5 378.9 345.5 419.3 C 345.5 459.7 374.9 498.8 379 504.2 C 383.1 509.7 436.9 592.6 519.3 628.2 C 538.9 636.7 554.2 641.7 566.1 645.5 C 585.8 651.8 603.7 650.9 617.8 648.8 C 633.6 646.4 666.4 628.9 673.2 609.8 C 680 590.6 680 574.2 678 570.8 C 676 567.4 670.5 565.4 662.3 561.2 Z"/>
        </g>
      </g>
    </g>
  </g>
</svg>